<svg xmlns="http://www.w3.org/2000/svg" width="176" height="176" fill="currentColor" class="css-9ybe10-StyledQrBg eamnwhk6"><path fill="#161823" fill-rule="evenodd" d="M189.562 1.164a9.28 9.28 0 0 1 9.279 9.279v11.546a1.031 1.031 0 0 1-2.062 0V10.443a7.217 7.217 0 0 0-7.217-7.217h-11.546a1.031 1.031 0 0 1 0-2.062z" clip-rule="evenodd"></path><path fill="#25F4E8" fill-rule="evenodd" d="M188.394 0a9.28 9.28 0 0 1 9.279 9.278v11.547a1.031 1.031 0 0 1-2.062 0V9.278a7.217 7.217 0 0 0-7.217-7.216h-11.546a1.031 1.031 0 0 1 0-2.062z" clip-rule="evenodd" style="mix-blend-mode:multiply"></path><path fill="#FE2C55" fill-rule="evenodd" d="M190.722 2.328A9.28 9.28 0 0 1 200 11.606v11.547a1.03 1.03 0 1 1-2.061 0V11.606a7.217 7.217 0 0 0-7.217-7.216h-11.546a1.03 1.03 0 1 1 0-2.062z" clip-rule="evenodd" style="mix-blend-mode:multiply"></path><path fill="url(#pattern0)" d="M12.675 12.674h174.656v174.651H12.675z"></path><path fill="white" d="M80.931 81.443h38.146v38.144H80.931z"></path><path fill="#161823" fill-rule="evenodd" d="M1.163 10.443a9.28 9.28 0 0 1 9.279-9.279h11.546a1.03 1.03 0 1 1 0 2.062H10.442a7.216 7.216 0 0 0-7.217 7.217v11.546a1.031 1.031 0 1 1-2.062 0z" clip-rule="evenodd"></path><path fill="#25F4E8" fill-rule="evenodd" d="M0 9.278A9.28 9.28 0 0 1 9.277 0h11.546a1.031 1.031 0 1 1 0 2.062H9.278A7.216 7.216 0 0 0 2.06 9.278v11.547a1.03 1.03 0 0 1-2.062 0z" clip-rule="evenodd" style="mix-blend-mode:multiply"></path><path fill="#FE2C55" fill-rule="evenodd" d="M2.327 11.606a9.28 9.28 0 0 1 9.279-9.278h11.546a1.031 1.031 0 1 1 0 2.062H11.606a7.216 7.216 0 0 0-7.217 7.216v11.547a1.03 1.03 0 0 1-2.062 0z" clip-rule="evenodd" style="mix-blend-mode:multiply"></path><path fill="#161823" fill-rule="evenodd" d="M198.841 189.558a9.28 9.28 0 0 1-9.279 9.278h-11.546a1.03 1.03 0 1 1 0-2.062h11.546a7.217 7.217 0 0 0 7.217-7.216v-11.547a1.03 1.03 0 0 1 2.062 0z" clip-rule="evenodd"></path><path fill="#25F4E8" fill-rule="evenodd" d="M197.673 188.393a9.28 9.28 0 0 1-9.278 9.278h-11.547a1.03 1.03 0 1 1 0-2.061h11.547a7.217 7.217 0 0 0 7.216-7.217v-11.546a1.03 1.03 0 1 1 2.062 0z" clip-rule="evenodd" style="mix-blend-mode:multiply"></path><path fill="#FE2C55" fill-rule="evenodd" d="M200.001 190.722a9.28 9.28 0 0 1-9.279 9.278h-11.546a1.032 1.032 0 0 1 0-2.062h11.546a7.217 7.217 0 0 0 7.217-7.216v-11.547a1.03 1.03 0 1 1 2.062 0z" clip-rule="evenodd" style="mix-blend-mode:multiply"></path><path fill="#161823" fill-rule="evenodd" d="M10.442 198.836a9.28 9.28 0 0 1-9.279-9.278v-11.546a1.03 1.03 0 1 1 2.062 0v11.546a7.216 7.216 0 0 0 7.217 7.216h11.546a1.031 1.031 0 0 1 0 2.062z" clip-rule="evenodd"></path></svg>